<svg width="15" height="21" viewBox="0 0 15 21" fill="none" xmlns="http://www.w3.org/2000/svg">
<mask id="path-1-inside-1_0_1186" fill="white">
<path fill-rule="evenodd" clip-rule="evenodd" d="M12.2158 14.0246C13.9142 12.6497 15 10.5478 15 8.19238C15 4.05025 11.6421 0.692383 7.5 0.692383C3.35786 0.692383 0 4.05025 0 8.19238C0 10.5478 1.08582 12.6497 2.78422 14.0246L7.5 20.3077L12.2158 14.0246Z"/>
</mask>
<path d="M12.2158 14.0246L11.5866 13.2474L11.4903 13.3253L11.416 13.4244L12.2158 14.0246ZM2.78422 14.0246L3.58401 13.4244L3.50968 13.3253L3.41345 13.2474L2.78422 14.0246ZM7.5 20.3077L6.70021 20.908L7.5 21.9736L8.29979 20.908L7.5 20.3077ZM14 8.19238C14 10.2333 13.0605 12.0541 11.5866 13.2474L12.845 14.8019C14.7678 13.2452 16 10.8623 16 8.19238H14ZM7.5 1.69238C11.0899 1.69238 14 4.60253 14 8.19238H16C16 3.49796 12.1944 -0.307617 7.5 -0.307617V1.69238ZM1 8.19238C1 4.60253 3.91015 1.69238 7.5 1.69238V-0.307617C2.80558 -0.307617 -1 3.49796 -1 8.19238H1ZM3.41345 13.2474C1.93949 12.0541 1 10.2333 1 8.19238H-1C-1 10.8623 0.232152 13.2452 2.155 14.8019L3.41345 13.2474ZM8.29979 19.7074L3.58401 13.4244L1.98444 14.6249L6.70021 20.908L8.29979 19.7074ZM11.416 13.4244L6.70021 19.7074L8.29979 20.908L13.0156 14.6249L11.416 13.4244Z" fill="black" mask="url(#path-1-inside-1_0_1186)"/>
<circle cx="7.49985" cy="8.19231" r="2.38462" stroke="black"/>
</svg>
