<svg width="11" height="11" viewBox="0 0 11 11" fill="none" xmlns="http://www.w3.org/2000/svg">
<path d="M0.292893 9.29289C-0.0976311 9.68342 -0.0976311 10.3166 0.292893 10.7071C0.683418 11.0976 1.31658 11.0976 1.70711 10.7071L0.292893 9.29289ZM11 1C11 0.447716 10.5523 3.00139e-07 10 7.21607e-07L1 5.10873e-07C0.447715 5.10873e-07 -3.8724e-07 0.447716 -3.8724e-07 1C-3.8724e-07 1.55229 0.447715 2 1 2L9 2L9 10C9 10.5523 9.44771 11 10 11C10.5523 11 11 10.5523 11 10L11 1ZM1.70711 10.7071L10.7071 1.70711L9.29289 0.292894L0.292893 9.29289L1.70711 10.7071Z" fill="black"/>
</svg>
