<svg width="23" height="17" viewBox="0 0 23 17" fill="none" xmlns="http://www.w3.org/2000/svg">
<path d="M1.36816 14.6577H21.9997" stroke="black"/>
<path d="M1.36816 10.9734H21.9997" stroke="black"/>
<path d="M1 16.4998V10.9209C1 8.71176 2.79086 6.9209 5 6.9209H17.6316C19.8407 6.9209 21.6316 8.71176 21.6316 10.9209V16.4998" stroke="black" stroke-linecap="round"/>
<path d="M4.68457 6.55232V5.3418C4.68457 4.78951 5.13229 4.3418 5.68457 4.3418H8.84247C9.39475 4.3418 9.84246 4.78951 9.84246 5.3418V6.55232" stroke="black" stroke-linecap="round"/>
<path d="M12.7891 6.55232V5.3418C12.7891 4.78951 13.2368 4.3418 13.7891 4.3418H16.947C17.4992 4.3418 17.947 4.78951 17.947 5.3418V6.55232" stroke="black" stroke-linecap="round"/>
<path d="M2.47363 7.28927V2.39453C2.47363 1.84225 2.92135 1.39453 3.47363 1.39453H19.1578C19.7101 1.39453 20.1578 1.84225 20.1578 2.39453V7.28927" stroke="black" stroke-linecap="round"/>
</svg>
