<svg width="97" height="81" viewBox="0 0 97 81" fill="none" xmlns="http://www.w3.org/2000/svg">
<path d="M12.6181 32.955V80.5H0.5V13.7662L36.8065 29.7402L22.6347 36.5844L13.319 32.4972L12.6181 32.1896V32.955Z" fill="black" stroke="white"/>
<path d="M87.5 12.8059V80.5H75.7649V32.6747V31.8718L75.0443 32.226L58.8562 40.1835L57.9046 40.6513L58.8709 41.0879L64.568 43.662V55.9581H52.8329V51.6538V51.3308L52.5386 51.198L44.3634 47.5093L44.149 47.4126L43.9377 47.5161L36.5003 51.1602L36.2203 51.2973V51.6092V68.03V68.53H36.7203H52.3329H52.8329V68.03V63.7257H64.568V80.5H24.5V44.0362L87.5 12.8059Z" fill="black" stroke="white"/>
<rect width="97" height="19" fill="#FCFCFC"/>
</svg>
