<svg width="117" height="82" viewBox="0 0 117 82" fill="none" xmlns="http://www.w3.org/2000/svg">
<path d="M46 15.6739L31.0655 8.70704L15.5327 1.45941L12.4013 0H8.70916H0V82H15.5327V18.6223L27.6142 24.2583L31.0655 22.6466L46 15.6739Z" fill="#FCFCFC"/>
<path d="M108.29 0H104.653H104.598L101.466 1.45941L85.935 8.70704L70.4014 15.9527L58.4675 21.5194L46.5315 27.0881L40.0729 30.0999L31 34.3338V34.4544V48.2041V66.4448V82H46.5315H70.4014H85.935V66.4448V60.6981H70.4014V66.4448H46.5315V44.2491L58.4675 38.6823L70.4014 44.2491V49.9958H82.7204H85.1017H85.935V48.2041V34.3338L76.8601 30.0999L85.935 25.868L101.466 18.6223V82H117V0H108.29Z" fill="#FCFCFC"/>
</svg>
