<svg width="118" height="92" viewBox="0 0 118 92" fill="none" xmlns="http://www.w3.org/2000/svg">
<path d="M17.2353 28.7189V91.423H1.34616V3.23256L48.5801 24.4832L29.9725 33.6724L17.9296 28.2694L17.2353 27.9579V28.7189Z" fill="white" stroke="black" stroke-width="0.985294"/>
<path d="M116.772 1.29362V91.4229H100.863V27.8912V27.1005L100.153 27.4489L78.6782 37.9916L77.7392 38.4526L78.6927 38.8829L86.3505 42.3384V58.9082H70.4417V53.0358V52.7175L70.1515 52.5867L59.3064 47.6997L59.0954 47.6046L58.8875 47.7063L49.0212 52.5342L48.7451 52.6693V52.9767V74.732V75.2247H49.2377H69.9491H70.4417V74.732V68.8597H86.3505V91.4229H32.8559V42.8384L116.772 1.29362Z" fill="white" stroke="black" stroke-width="0.985294"/>
</svg>
