<svg width="87" height="61" viewBox="0 0 87 61" fill="none" xmlns="http://www.w3.org/2000/svg">
<path d="M34 11.6598L22.9615 6.47719L11.4807 1.08566L9.16619 0H6.43721H0V61H11.4807V13.8532L20.4105 18.0458L22.9615 16.8469L34 11.6598Z" fill="#070000"/>
<path d="M80.5184 0H77.8118H77.7707L75.4402 1.08566L63.8818 6.47719L52.322 11.8672L43.4409 16.0083L34.5583 20.1509L29.7519 22.3914L23 25.541V25.6307V35.8592V49.4284V61H34.5583H52.322H63.8818V49.4284V45.1535H52.322V49.4284H34.5583V32.917L43.4409 28.7759L52.322 32.917V37.192H61.4896H63.2617H63.8818V35.8592V25.541L57.1284 22.3914L63.8818 19.2433L75.4402 13.8532V61H87V0H80.5184Z" fill="#070000"/>
</svg>
