<svg width="88" height="69" viewBox="0 0 88 69" fill="none" xmlns="http://www.w3.org/2000/svg">
<path d="M12.6181 20.955V68.5H0.5V1.76624L36.8065 17.7402L22.6347 24.5844L13.319 20.4972L12.6181 20.1896V20.955Z" fill="black" stroke="white"/>
<path d="M87.5 0.805921V68.5H75.7649V20.6747V19.8718L75.0443 20.226L58.8562 28.1835L57.9046 28.6513L58.8709 29.0879L64.568 31.662V43.9581H52.8329V39.6538V39.3308L52.5386 39.198L44.3634 35.5093L44.149 35.4126L43.9377 35.5161L36.5003 39.1602L36.2203 39.2973V39.6092V56.03V56.53H36.7203H52.3329H52.8329V56.03V51.7257H64.568V68.5H24.5V32.0362L87.5 0.805921Z" fill="black" stroke="white"/>
</svg>
