<svg width="40" height="40" viewBox="0 0 40 40" fill="none" xmlns="http://www.w3.org/2000/svg">
<circle cx="20" cy="20" r="19.4984" stroke="black" stroke-width="1.00325"/>
<path d="M13.6234 9.18376L12.2945 10.4386C11.2435 11.4307 10.5558 12.7289 10.3362 14.1353C10.1012 15.6371 12.8792 22.4417 15.0921 25.1237C17.2546 27.8518 23.405 32.0939 24.9646 32.2309C26.4257 32.3596 27.89 32.0214 29.1344 31.2677L30.7094 30.3181C30.7828 30.2736 30.8443 30.2129 30.8889 30.1409C30.9335 30.069 30.9599 29.9878 30.9659 29.904C30.9719 29.8202 30.9574 29.7363 30.9235 29.659C30.8896 29.5817 30.8373 29.5133 30.7709 29.4594L26.0892 25.6501C26.0219 25.5955 25.942 25.5574 25.8563 25.539C25.7707 25.5206 25.6817 25.5224 25.5969 25.5443L23.0497 26.2009C22.9735 26.2207 22.8938 26.2242 22.8161 26.2114C22.7383 26.1985 22.6644 26.1695 22.5993 26.1263C21.4257 25.3476 19.9416 24.421 18.4953 22.5598C16.9776 20.7514 16.3971 19.1344 15.9034 17.8429C15.8755 17.7713 15.864 17.6947 15.8695 17.6184C15.8751 17.542 15.8976 17.4678 15.9355 17.4006L17.1944 15.1596C17.2366 15.0848 17.2597 15.0012 17.2616 14.916C17.2636 14.8308 17.2444 14.7463 17.2056 14.6698L14.506 9.34384C14.4695 9.26607 14.4143 9.19795 14.3449 9.14526C14.2756 9.09258 14.1942 9.05687 14.1076 9.04117C14.021 9.02546 13.9318 9.03022 13.8475 9.05504C13.7632 9.07987 13.6863 9.12402 13.6234 9.18376Z" fill="black"/>
</svg>
